<svg version="1.1" xmlns="http://www.w3.org/2000/svg" width="293px" height="302px" transform="rotate(0) scale(1, 1)">
<path d="M0 0 C0.69706055 0.19867676 1.39412109 0.39735352 2.11230469 0.60205078 C18.88509165 5.45083177 32.55966975 12.94363894 46 24 C47.01320312 24.78310547 47.01320312 24.78310547 48.046875 25.58203125 C53.53950864 29.95346216 57.7314929 35.46844089 62 41 C62.60972656 41.78246094 63.21945313 42.56492188 63.84765625 43.37109375 C77.93929481 62.4060406 85.79589288 86.38851112 85 110 C77.08 110 69.16 110 61 110 C60.773125 107.36 60.54625 104.72 60.3125 102 C58.3628667 83.16956291 51.47453292 66.34437725 39 52 C38.236875 50.989375 37.47375 49.97875 36.6875 48.9375 C20.82000011 31.59395361 -1.60338204 22.2653536 -24.83154297 21.06982422 C-49.04328854 20.2902071 -71.98926686 28.87182399 -90 45 C-107.32856148 61.6076506 -116.81086658 83.57784641 -117.35229492 107.54638672 C-117.41969464 116.49967887 -116.94476597 124.76524029 -114.65625 133.453125 C-114 136 -114 136 -114 139 C-117.45670732 140.17152378 -120.91562122 141.33639077 -124.375 142.5 C-125.35984375 142.83386719 -126.3446875 143.16773438 -127.359375 143.51171875 C-128.77089844 143.98544922 -128.77089844 143.98544922 -130.2109375 144.46875 C-131.08024902 144.76201172 -131.94956055 145.05527344 -132.84521484 145.35742188 C-135 146 -135 146 -137 146 C-137.65192688 143.50145233 -138.29663064 141.0013863 -138.9375 138.5 C-139.11990234 137.80390625 -139.30230469 137.1078125 -139.49023438 136.390625 C-146.74054324 107.91668473 -141.31971462 77.38715403 -126.9453125 52.0546875 C-123.33953535 46.39260371 -119.2563874 41.18345429 -115 36 C-114.36449219 35.19820312 -113.72898437 34.39640625 -113.07421875 33.5703125 C-87.16456383 2.3899569 -38.5439425 -11.42521785 0 0 Z " fill="#ffffff" transform="translate(171,40)"/>
<path d="M0 0 C0.76248047 -0.00386719 1.52496094 -0.00773437 2.31054688 -0.01171875 C7.93395075 -0.00177462 7.93395075 -0.00177462 10.1875 1.125 C9.93872898 4.56447146 9.6597077 8.00083148 9.375 11.4375 C9.26961914 12.90219727 9.26961914 12.90219727 9.16210938 14.39648438 C9.08154297 15.33427734 9.00097656 16.27207031 8.91796875 17.23828125 C8.84989014 18.10235596 8.78181152 18.96643066 8.71166992 19.85668945 C8.09663415 22.51821595 7.36320392 23.50529106 5.1875 25.125 C2.578125 25.27734375 2.578125 25.27734375 -0.5625 25.0625 C-15.84298773 24.7565503 -29.88562915 30.81153136 -41.0078125 41.1953125 C-52.11623573 53.07315032 -57.31284161 67.85398156 -56.99609375 83.93359375 C-56.05444884 100.3021872 -49.23762798 113.34087069 -37.375 124.4375 C-28.21401573 132.22042168 -16.86412288 137.34747594 -4.8125 138.125 C-4.1525 138.1765625 -3.4925 138.228125 -2.8125 138.28125 C11.94190933 138.93217982 26.48545174 133.33420162 37.625 123.8125 C49.07683063 112.69859224 55.87424807 98.38382009 56.5 82.375 C56.05417259 66.52335865 50.2584488 52.3852983 39.0078125 41.2109375 C37.07428601 38.99526551 36.48062909 38.01093756 36.1875 35.125 C37.26733398 33.20214844 37.26733398 33.20214844 38.93359375 31.234375 C39.52333984 30.52539062 40.11308594 29.81640625 40.72070312 29.0859375 C41.34912109 28.35632813 41.97753906 27.62671875 42.625 26.875 C43.24955078 26.12992188 43.87410156 25.38484375 44.51757812 24.6171875 C46.06317851 22.7766252 47.61986087 20.946791 49.1875 19.125 C57.0554626 20.76721628 62.50462356 28.82956101 66.84838867 35.22387695 C79.45313641 54.66410162 83.33871082 76.41810365 79.1875 99.125 C74.70226003 119.43773598 62.32039106 137.37673184 45.1875 149.125 C25.73587354 161.34110306 3.09805819 165.82855764 -19.52514648 160.74145508 C-33.27316141 157.13483298 -45.23095018 150.66193613 -55.8125 141.125 C-56.76189453 140.28001953 -56.76189453 140.28001953 -57.73046875 139.41796875 C-72.80440053 125.20920745 -80.78450675 104.69085847 -82.05078125 84.28515625 C-82.65834501 61.68433403 -74.59136462 40.99842823 -59.13549805 24.40551758 C-43.6226068 8.38383497 -22.1607308 -0.11532037 0 0 Z " fill="#ffffff" transform="translate(142.8125,68.875)"/>
<path d="M0 0 C9.13960742 8.45545254 15.38211552 19.96323593 16.16015625 32.42578125 C16.75347285 47.87343813 13.22052499 61.07232565 2.59375 72.73046875 C-8.31725558 83.22114667 -20.71834075 87.69767262 -35.57275391 87.62133789 C-49.50131869 87.28209486 -61.34627218 81.57426924 -70.96484375 71.5703125 C-81.39537721 59.30789324 -84.08913137 46.1360521 -83.34765625 30.53417969 C-82.31985059 18.55510474 -75.3721578 7.52612765 -66.8515625 -0.6328125 C-46.53074933 -16.51304276 -20.00667706 -16.19415239 0 0 Z " fill="#ffffff" transform="translate(176.15234375,112.7421875)"/>
<path d="M0 0 C2.56376764 1.26832688 5.12602212 2.53956365 7.6875 3.8125 C8.40873047 4.16892578 9.12996094 4.52535156 9.87304688 4.89257812 C13.68140477 6.78806219 17.38873857 8.74207126 21 11 C16.81749262 22.18670634 9.13675305 30.55440669 1 39 C0.35417969 39.72058594 -0.29164063 40.44117188 -0.95703125 41.18359375 C-14.81109324 56.18461512 -35.46228025 65.35643926 -55 70 C-56.02867187 70.24621094 -57.05734375 70.49242187 -58.1171875 70.74609375 C-88.36297442 76.56259123 -119.10008464 69.30348611 -144.42578125 52.37890625 C-145.97332632 51.28414992 -147.49216121 50.14882956 -149 49 C-148.39810734 45.76911507 -147.35126443 43.8604913 -145.27734375 41.328125 C-144.73916016 40.66425781 -144.20097656 40.00039062 -143.64648438 39.31640625 C-142.80053711 38.29353516 -142.80053711 38.29353516 -141.9375 37.25 C-141.36966797 36.55261719 -140.80183594 35.85523438 -140.21679688 35.13671875 C-138.81712814 33.41947812 -137.41144064 31.70756705 -136 30 C-132.12253191 30.84128869 -129.56427801 32.47938331 -126.25 34.6875 C-115.88514919 41.30774611 -104.24287632 45.59215833 -92 47 C-90.53240234 47.19916016 -90.53240234 47.19916016 -89.03515625 47.40234375 C-66.23344917 49.91081338 -42.40337372 43.02431055 -24.4375 28.8125 C-22.94921098 27.55236224 -21.47030125 26.28107987 -20 25 C-19.02417969 24.22785156 -18.04835937 23.45570313 -17.04296875 22.66015625 C-13.83244573 19.98751658 -11.36833522 16.95993417 -8.875 13.625 C-8.45863281 13.08617187 -8.04226562 12.54734375 -7.61328125 11.9921875 C-4.70870177 8.16797628 -2.31194006 4.20837016 0 0 Z " fill="#ffffff" transform="translate(222,192)"/>
</svg>