<?xml version="1.0" encoding="UTF-8"?>
<svg version="1.1" xmlns="http://www.w3.org/2000/svg" width="1085" height="457">
<path d="M0 0 C1.19109375 0.97839844 1.19109375 0.97839844 2.40625 1.9765625 C26.79131295 22.5162886 41.96894855 54.74275715 44.96264648 86.10717773 C45.347511 90.73503453 45.6671696 95.3681102 46 100 C36.76 100 27.52 100 18 100 C17.608125 96.7 17.21625 93.4 16.8125 90 C13.11193144 61.90140039 0.27957436 36.09167586 -22.31640625 18.34375 C-45.57746795 0.75523776 -74.11400615 -6.55476676 -103.05078125 -2.58105469 C-130.99793519 2.51485735 -155.50411512 17.13257023 -171.94799805 40.40600586 C-188.03435097 63.96091491 -193.44390082 92.3636313 -188.56494141 120.31665039 C-187.76537615 124.55669586 -186.91803303 128.78400655 -186 133 C-194.52208527 136.80840441 -202.98504028 139.61290268 -212 142 C-224.34173707 113.2026135 -220.53725056 78.48238546 -209.47265625 50.01171875 C-203.01333553 34.06241917 -193.62989854 20.59651684 -182 8 C-181.35160156 7.29230469 -180.70320313 6.58460937 -180.03515625 5.85546875 C-132.33046193 -43.86965968 -51.1211891 -43.06184596 0 0 Z " fill="#000000" transform="translate(257,121)"/>
<path d="M0 0 C1 1 1 1 1.1875 4.5625 C1.14218581 9.22986155 0.63247761 13.81089698 0.0625 18.4375 C-0.02427002 19.147854 -0.11104004 19.85820801 -0.20043945 20.59008789 C-0.87118326 25.74236653 -0.87118326 25.74236653 -2 28 C-3.72283203 28.05607422 -3.72283203 28.05607422 -5.48046875 28.11328125 C-27.20128462 28.96098012 -45.52394459 34.21200844 -60.67236328 50.48291016 C-73.41943888 65.04898735 -77.03667072 82.7831598 -76.1953125 101.52441406 C-74.8875895 118.09980305 -66.53878589 133.62098452 -54.140625 144.51171875 C-38.0655656 157.10940131 -20.38670238 161.51296554 -0.26171875 159.76171875 C12.1162423 157.70219246 23.48801967 152.03677821 33 144 C34.05767578 143.12794922 34.05767578 143.12794922 35.13671875 142.23828125 C47.15518771 131.3531846 54.17319781 114.84723407 55.203125 98.84375 C55.47312474 79.58376861 49.91212765 62.73007248 36.70703125 48.53515625 C34.83665475 46.65153815 32.94538615 44.80569087 31 43 C33.45626237 38.64985183 36.35824333 34.791056 39.4375 30.875 C40.15389648 29.94494141 40.15389648 29.94494141 40.88476562 28.99609375 C43.34514332 25.85734031 45.61173336 23.19476374 49 21 C68.85364334 36.8504564 80.71827394 60.26019637 83.5390625 85.3046875 C85.72335406 109.57644641 78.80553893 133.78253073 63.5625 152.9375 C62.06420344 154.64504142 60.54345899 156.33316929 59 158 C58.24203125 158.84949219 57.4840625 159.69898438 56.703125 160.57421875 C40.17513038 178.20948098 15.99190894 188.04800434 -7.9375 189.1875 C-33.24263956 188.75270379 -55.75709057 180.43551613 -75 164 C-75.66257812 163.43925781 -76.32515625 162.87851562 -77.0078125 162.30078125 C-93.83805457 146.76216241 -104.36282795 122.14532225 -105.2734375 99.515625 C-105.84850019 74.53034908 -99.94619407 53.56756258 -84 34 C-82.98679687 32.74123047 -82.98679687 32.74123047 -81.953125 31.45703125 C-69.14519496 16.38200411 -52.09224972 6.76053471 -33 2 C-32.18273437 1.77570313 -31.36546875 1.55140625 -30.5234375 1.3203125 C-20.83122955 -0.92581823 -9.89680143 -0.73405595 0 0 Z " fill="#000000" transform="translate(181,127)"/>
<path d="M0 0 C12.02659911 10.68837927 20.06562744 26.1665849 21.15527344 42.29882812 C22.08723665 62.0009925 18.28941762 80.44726003 4.8125 95.5 C-6.2292958 107.15059718 -22.18367239 114.73729194 -38.26953125 115.30078125 C-40.11709261 115.31990988 -41.96487192 115.32342511 -43.8125 115.3125 C-45.2660791 115.30621582 -45.2660791 115.30621582 -46.74902344 115.29980469 C-53.86533177 115.18760526 -60.26489224 114.40913652 -67 112 C-67.81855469 111.74476563 -68.63710938 111.48953125 -69.48046875 111.2265625 C-84.21159737 106.12102031 -95.94633206 95.28722845 -103.02758789 81.5222168 C-111.655938 63.53163222 -112.4837812 43.77614241 -106 25 C-102.22175776 15.95571028 -96.93710463 8.86183767 -90 2 C-89.22462891 1.17435547 -89.22462891 1.17435547 -88.43359375 0.33203125 C-64.92508193 -22.56268131 -24.22612655 -18.9386783 0 0 Z M-71.8125 20.5 C-79.98865006 30.16666946 -82.92441647 42.55461527 -82 55 C-80.22984251 67.22608775 -75.91809887 76.3393399 -66.37109375 84.30859375 C-57.07924999 90.93687768 -46.53363218 92.27367644 -35.3828125 90.609375 C-26.66716344 88.43742412 -18.86238566 83.061462 -13.5625 75.8125 C-6.7558206 64.25100978 -5.26252072 51.44818616 -7.66015625 38.41015625 C-9.65088247 31.02464814 -12.72666628 25.5191247 -18 20 C-18.5465625 19.42507812 -19.093125 18.85015625 -19.65625 18.2578125 C-34.23606393 4.43449835 -58.21355264 6.63087487 -71.8125 20.5 Z " fill="#000000" transform="translate(884,173)"/>
<path d="M0 0 C0.51046875 0.37511719 1.0209375 0.75023437 1.546875 1.13671875 C1.06072621 6.26608454 -1.54227773 9.7055006 -4.390625 13.82421875 C-4.84630859 14.50033203 -5.30199219 15.17644531 -5.77148438 15.87304688 C-7.5550915 18.49753466 -9.20342756 20.88702131 -11.453125 23.13671875 C-12.14277344 22.6778125 -12.83242188 22.21890625 -13.54296875 21.74609375 C-26.29666556 13.41857704 -36.14143475 10.2107418 -51.453125 11.13671875 C-55.13326546 11.94137969 -57.58924527 13.30163501 -60.328125 15.94921875 C-61.78708912 18.78609343 -62.32267819 20.94077198 -62.453125 24.13671875 C-60.87876695 28.54492128 -58.25182588 30.07309269 -54.14428711 32.05712891 C-47.53404226 34.70890272 -40.47739806 36.275661 -33.59082031 38.05859375 C-20.15932176 41.55865852 -7.1745379 45.73495263 1.796875 56.94921875 C7.22393145 66.83421443 8.03064502 77.22327866 5.9609375 88.26171875 C3.17326604 97.26410732 -3.6044219 104.94272748 -11.43359375 110.11328125 C-29.14479622 119.08878424 -50.36614756 117.9315323 -68.80859375 112.0703125 C-78.71781404 108.55039017 -87.1522292 103.75051009 -94.453125 96.13671875 C-93.92356201 95.43325317 -93.92356201 95.43325317 -93.38330078 94.71557617 C-91.7807322 92.58575673 -90.17941622 90.45499871 -88.578125 88.32421875 C-87.74474609 87.21723633 -87.74474609 87.21723633 -86.89453125 86.08789062 C-86.35957031 85.37568359 -85.82460938 84.66347656 -85.2734375 83.9296875 C-84.78117676 83.27508545 -84.28891602 82.6204834 -83.78173828 81.94604492 C-82.62780005 80.37459394 -81.53458151 78.75890352 -80.453125 77.13671875 C-77.29369861 78.59491555 -74.44741886 80.42339815 -71.5300293 82.31079102 C-59.51780401 89.94590358 -46.44818446 94.31205619 -32.140625 91.38671875 C-27.45062477 89.79688817 -24.62875454 88.11391389 -22.078125 83.82421875 C-21.23217772 80.18664546 -21.48626522 77.7463286 -22.453125 74.13671875 C-29.19512634 65.07715444 -42.30486833 63.43430472 -52.59570312 60.86914062 C-66.03950803 57.40718261 -79.29508385 53.28919027 -86.953125 40.94921875 C-91.60927224 32.73629238 -91.59418011 23.21206621 -89.875 14.05859375 C-86.66310966 3.83894266 -79.26005084 -3.58189223 -70.0078125 -8.68359375 C-65.94195876 -10.56109808 -61.80807731 -11.84590584 -57.453125 -12.86328125 C-56.69257812 -13.04632813 -55.93203125 -13.229375 -55.1484375 -13.41796875 C-35.9990712 -16.5817771 -15.72734752 -11.07049107 0 0 Z " fill="#000000" transform="translate(1010.453125,171.86328125)"/>
<path d="M0 0 C8.91 0 17.82 0 27 0 C27.33 19.14 27.66 38.28 28 58 C34.95784376 49.88251561 41.68478737 41.9115381 48.21875 33.5 C51.51138669 29.30937148 55.00296699 25.29850881 58.49755859 21.27636719 C62.66597828 16.45292958 66.62427896 11.48417274 70.5234375 6.44140625 C72.27041952 4.18401081 73.97904621 2.02095379 76 0 C78.50920846 -0.17495606 80.90624941 -0.23169569 83.4140625 -0.1953125 C84.14370209 -0.1924826 84.87334167 -0.18965271 85.62509155 -0.18673706 C87.95856028 -0.17553002 90.29164703 -0.1504251 92.625 -0.125 C94.20572363 -0.11497085 95.78645327 -0.10584489 97.3671875 -0.09765625 C101.24493914 -0.07558905 105.12240478 -0.04105615 109 0 C104.81826776 6.3849326 104.81826776 6.3849326 102.30078125 9.26171875 C101.81859131 9.81738525 101.33640137 10.37305176 100.83959961 10.94555664 C100.33565674 11.52039795 99.83171387 12.09523926 99.3125 12.6875 C98.23599824 13.92883751 97.16048591 15.17103371 96.0859375 16.4140625 C95.29654785 17.32720215 95.29654785 17.32720215 94.49121094 18.25878906 C91.69063826 21.52887491 88.99117022 24.88067465 86.27734375 28.22265625 C83.7179513 31.34397363 81.11367382 34.4241604 78.5 37.5 C74.94302561 41.69564557 71.39086138 45.89480488 67.875 50.125 C67.15054688 50.99382812 66.42609375 51.86265625 65.6796875 52.7578125 C63.83166277 54.97884733 63.83166277 54.97884733 63 58 C63.87784247 59.92846767 63.87784247 59.92846767 65.32421875 61.88671875 C65.85225098 62.65201904 66.3802832 63.41731934 66.92431641 64.20581055 C67.50616699 65.02476807 68.08801758 65.84372559 68.6875 66.6875 C69.27966309 67.53675049 69.87182617 68.38600098 70.48193359 69.26098633 C74.73299783 75.31849827 79.13422162 81.25489867 83.61352539 87.14477539 C87.56528155 92.3583821 91.29939486 97.69790331 94.97241211 103.1105957 C98.5450343 108.37128677 102.22996553 113.54270354 106.00439453 118.66064453 C109 122.78250951 109 122.78250951 109 125 C109.66 125 110.32 125 111 125 C111.17391769 124.39056046 111.34783539 123.78112091 111.52702332 123.1532135 C113.29930358 117.0786173 115.35935327 111.19480133 117.67578125 105.30859375 C118.03378815 104.38917496 118.39179504 103.46975616 118.76065063 102.5224762 C119.94111183 99.49277703 121.12681703 96.46515897 122.3125 93.4375 C123.57828388 90.19330625 124.84267372 86.94857163 126.10688782 83.70376587 C126.99766264 81.41745306 127.88885527 79.13130299 128.78044128 76.8453064 C132.21178486 68.04207609 135.61526645 59.22838421 139.0078125 50.41015625 C139.50884413 49.10842587 140.00989691 47.80670363 140.51097107 46.50498962 C142.46848519 41.41908802 144.42595999 36.3331741 146.37905884 31.24557495 C147.73892135 27.70458472 149.1016302 24.16470123 150.46484375 20.625 C151.06530014 19.05764854 151.06530014 19.05764854 151.67788696 17.45863342 C152.05738495 16.47455002 152.43688293 15.49046661 152.82788086 14.4765625 C153.31483681 13.2093335 153.31483681 13.2093335 153.81163025 11.91650391 C155.4464013 7.90443934 157.24047155 3.95893901 159 0 C167.91 0 176.82 0 186 0 C189.03235 7.27764 192.03380924 14.53597029 194.87109375 21.88671875 C195.22636139 22.80348892 195.58162903 23.72025909 195.94766235 24.66481018 C197.1124447 27.67179397 198.27500221 30.67963235 199.4375 33.6875 C200.26022861 35.81286682 201.08306632 37.93819141 201.90600586 40.06347656 C209.60817572 59.96150666 217.28848994 79.86802571 224.96459961 99.77612305 C225.41983002 100.95649643 225.87506042 102.13686981 226.34408569 103.35301208 C227.19780944 105.56674497 228.05127938 107.78057576 228.90444946 109.99452209 C229.28410858 110.97891769 229.6637677 111.96331329 230.05493164 112.97753906 C230.38401016 113.83124084 230.71308868 114.68494263 231.05213928 115.56451416 C231.7132675 117.26325364 232.40568474 118.95000313 233.12156677 120.62640381 C234 123 234 123 234 126 C224.43 126 214.86 126 205 126 C203.68 122.41125 202.36 118.8225 201 115.125 C200.58234375 113.99465332 200.1646875 112.86430664 199.734375 111.69970703 C199.40953125 110.81138184 199.0846875 109.92305664 198.75 109.0078125 C198.41484375 108.09660645 198.0796875 107.18540039 197.734375 106.24658203 C197 104 197 104 197 102 C180.83 102.33 164.66 102.66 148 103 C145.36 110.26 142.72 117.52 140 125 C135.99145469 129.00854531 121.30007021 126.83839658 115.28822613 126.96293831 C111.6349037 127.04010842 107.98902249 127.14908748 104.33959961 127.33740234 C80.94691913 128.51388985 80.94691913 128.51388985 74.58154297 124.45962524 C70.64742992 120.61575257 68.24862429 116.12987983 66.00881958 111.15209961 C64.58979069 108.12490666 62.71192674 105.51290498 60.7578125 102.80859375 C58.92631294 100.10577953 57.0995658 97.39980479 55.2734375 94.69335938 C51.65255736 89.35101378 47.93083021 84.11911566 44 79 C42.0822931 81.22827893 40.16580761 83.45758905 38.25 85.6875 C37.71117187 86.31333984 37.17234375 86.93917969 36.6171875 87.58398438 C36.08867187 88.19951172 35.56015625 88.81503906 35.015625 89.44921875 C34.53383789 90.00955811 34.05205078 90.56989746 33.55566406 91.1472168 C33.04229492 91.75863525 32.52892578 92.37005371 32 93 C31.29037109 93.76183594 30.58074219 94.52367187 29.84960938 95.30859375 C27.57041252 98.62510196 27.46362352 100.6166122 27.390625 104.61328125 C27.35839844 105.86044922 27.32617188 107.10761719 27.29296875 108.39257812 C27.27169922 110.33293945 27.27169922 110.33293945 27.25 112.3125 C27.20552734 114.28186523 27.20552734 114.28186523 27.16015625 116.29101562 C27.08955265 119.5270139 27.0425015 122.76351064 27 126 C18.09 126 9.18 126 0 126 C0 84.42 0 42.84 0 0 Z M172 33 C169.71915848 39.38959921 167.44074894 45.78006169 165.1640625 52.17114258 C164.38858695 54.34712566 163.61254606 56.52290736 162.8359375 58.69848633 C161.72248512 61.81799928 160.61103983 64.93822087 159.5 68.05859375 C158.9750293 69.52733192 158.9750293 69.52733192 158.43945312 71.02574158 C157.95895508 72.37702904 157.95895508 72.37702904 157.46875 73.75561523 C157.18451172 74.55281479 156.90027344 75.35001434 156.60742188 76.17137146 C155.94746051 77.83702316 155.94746051 77.83702316 156 79 C166.89 79 177.78 79 189 79 C188.18015625 76.68484375 187.3603125 74.3696875 186.515625 71.984375 C185.70774761 69.70061274 184.9002436 67.41671877 184.09277344 65.1328125 C183.53847462 63.56561768 182.98379781 61.99855649 182.42871094 60.43164062 C179.1995515 51.31538545 176.01005214 42.19164953 173 33 C172.67 33 172.34 33 172 33 Z " fill="#000000" transform="translate(356,160)"/>
<path d="M0 0 C8.91 0 17.82 0 27 0 C27 41.58 27 83.16 27 126 C18.09 126 9.18 126 0 126 C0 84.42 0 42.84 0 0 Z " fill="#000000" transform="translate(605,160)"/>
<path d="M0 0 C74.82954545 0 74.82954545 0 88.3125 12.6875 C96.27588025 21.13843415 99.9107864 30.40203897 100.03125 42.01171875 C99.49378276 52.50576664 95.83951606 61.96284716 89 70 C85.79968083 72.86059298 82.43132362 75.42650728 79 78 C78.34 78.66 77.68 79.32 77 80 C77.40202637 80.72364746 77.80405273 81.44729492 78.21826172 82.19287109 C79.06541748 83.71775146 79.06541748 83.71775146 79.9296875 85.2734375 C80.55609131 86.40088379 81.18249512 87.52833008 81.82788086 88.68994141 C83.19624524 91.1529561 84.56420916 93.61619262 85.93188477 96.07958984 C89.02231979 101.64525154 92.11459431 107.20977839 95.22265625 112.765625 C95.68752441 113.59787598 96.15239258 114.43012695 96.63134766 115.28759766 C97.48737414 116.81948506 98.34506237 118.35044532 99.20458984 119.88037109 C102 124.88806284 102 124.88806284 102 126 C91.77 126 81.54 126 71 126 C69.040625 122.205 67.08125 118.41 65.0625 114.5 C63.845582 112.20735998 62.62718529 109.91550315 61.40625 107.625 C59.36031965 103.74172657 57.4920763 99.90432341 55.90625 95.8125 C53.48009052 89.66754184 53.48009052 89.66754184 49 85 C41.69432765 82.84413531 34.58095505 83.63684048 27 84 C27 97.86 27 111.72 27 126 C18.09 126 9.18 126 0 126 C0 84.42 0 42.84 0 0 Z M27 23 C27 35.21 27 47.42 27 60 C34.425 60.12375 34.425 60.12375 42 60.25 C43.54558594 60.28641602 45.09117187 60.32283203 46.68359375 60.36035156 C54.08534808 60.42004313 59.6951575 60.28666711 66 56 C70.86204445 50.88205847 72.5268247 46.57586741 72.3828125 39.6015625 C71.58168647 34.15717536 68.43647717 30.51628146 64.75 26.625 C57.07515209 22.0898626 48.05021765 22.75204667 39.4375 22.875 C33.2809375 22.936875 33.2809375 22.936875 27 23 Z " fill="#000000" transform="translate(660,160)"/>
<path d="M0 0 C11.29832475 10.40206341 18.93187052 24.50440261 19.7109375 39.91796875 C20.06929672 58.41284858 15.49965285 72.42420172 2.66015625 86.12109375 C-8.62851277 97.25538781 -22.38890013 102.61682484 -38.125 102.75 C-53.77966714 102.60251528 -68.07786105 97.20988552 -79.625 86.375 C-91.24243554 74.26548155 -96.47129368 59.08768745 -96.67480469 42.49023438 C-96.32060421 27.44713194 -89.83720223 14.17075664 -79.625 3.375 C-57.17558678 -17.86093142 -24.29316134 -18.98775829 0 0 Z " fill="#000000" transform="translate(208.625,176.625)"/>
<path d="M0 0 C2.68926168 1.246317 5.37638852 2.49692566 8.0625 3.75 C8.81466797 4.09804688 9.56683594 4.44609375 10.34179688 4.8046875 C15.03510511 6.99896148 19.53677402 9.36829703 24 12 C21.93786412 27.94524786 2.09319013 45.80396968 -9.97167969 55.60107422 C-24.73873235 66.82918983 -41.11638429 75.12265026 -59 80 C-60.2271875 80.3403125 -61.454375 80.680625 -62.71875 81.03125 C-95.05331222 88.24640025 -131.56236719 83.00483038 -160 66 C-164.80477865 62.85685409 -169.41987 59.45945989 -174 56 C-172.23245925 51.81647159 -169.379141 48.51070247 -166.5625 45 C-165.58427854 43.77111733 -164.60640451 42.541958 -163.62890625 41.3125 C-163.17273926 40.74015625 -162.71657227 40.1678125 -162.24658203 39.578125 C-160.79728321 37.74336833 -159.38774937 35.88169406 -158 34 C-154.39947717 35.29039717 -151.74701859 36.83192964 -148.75 39.1875 C-128.05031911 53.92911251 -99.50542001 57.80194073 -74.875 53.875 C-49.44655266 49.3972973 -24.16784529 35.35766347 -9.1015625 14.0078125 C-6.64270667 10.39405259 -4.30857225 6.71119085 -2 3 C-1.34 2.01 -0.68 1.02 0 0 Z " fill="#000000" transform="translate(263,270)"/>
</svg>
